<svg xmlns="http://www.w3.org/2000/svg" width="53" height="53" viewBox="0 0 52.7 52.5"><path d="M52.3 52.1H0.6V37.3h51.7V52.1zM1.6 51.1h49.7V38.3H1.6V51.1z"/><path d="M30.9 38.3h-9v-6h9V38.3zM22.9 37.3h7v-4h-7V37.3z"/><path d="M49.2 33.4H3.6v-0.5c0-12.6 10.2-22.8 22.8-22.8 12.6 0 22.8 10.2 22.8 22.8V33.4zM4.6 32.4h43.6c-0.3-11.8-9.9-21.3-21.8-21.3C14.6 11 4.9 20.6 4.6 32.4z"/><path d="M43 27.8h-1c0-7.1-5.8-12.8-12.8-12.8v-1C36.8 14 43 20.2 43 27.8z"/><rect x="30.5" y="6.3" width="1" height="4.6"/><rect x="21.3" y="6.3" width="1" height="4.6"/><path d="M31.5 6.3h-1c0-2.3-1.9-4.1-4.1-4.1S22.3 4.1 22.3 6.3h-1c0-2.8 2.3-5.1 5.1-5.1C29.2 1.2 31.5 3.5 31.5 6.3z"/></svg>