<svg xmlns="http://www.w3.org/2000/svg" width="53" height="53" viewBox="0 0 52.7 52.7"><path d="M49.9 50.9h-1c0-12.4-10.1-22.5-22.5-22.5S3.8 38.5 3.8 50.9h-1c0-13 10.6-23.5 23.5-23.5C39.3 27.4 49.9 37.9 49.9 50.9z"/><rect x="25.8" y="1" width="1" height="37.9"/><polygon points="32.8 11.7 25.8 11.7 25.8 2.6 39.7 2.6 39.7 7.2 38.7 7.2 38.7 3.6 26.8 3.6 26.8 10.7 32.8 10.7 "/><path d="M46.3 15.7H32.3v-5h6.4V6.7h7.7l-1.8 4.5L46.3 15.7zM33.3 14.7h11.6l-1.4-3.5 1.4-3.5h-5.2v4h-6.4V14.7z"/><path d="M7.2 48.1c-0.6 0-1.2-0.1-1.6-0.5 -0.4-0.4-0.5-1-0.4-1.8 0.2-1.4-0.8-1.9-0.8-2l0.2-0.4 0-0.1 -0.5-0.2 0.6-0.3c0.4 0.1 1.8 1.1 1.5 3 -0.1 0.5 0 0.9 0.1 1 0.2 0.2 0.7 0.2 1.2 0.2 1.1-0.1 4.7-1.2 5-2.5 0.1-0.4-0.3-0.8-0.9-1.4 -0.5-0.5-1.1-1-1-1.7 0.1-0.5 0.4-0.9 1.1-1.3 1.3-0.7 1.3-1.6 1.4-2.4 0-0.6 0.1-1.3 0.7-1.6 0.4-0.2 0.6-0.8 0.5-1.2 -0.2-0.5-1-0.3-1.3-0.3 -0.7 0.2-1.6 0.3-1.9-0.3 -0.4-0.6 0.3-1.5 0.6-1.8l0.8 0.7c-0.2 0.2-0.3 0.4-0.4 0.6 0.1 0 0.4 0 0.8-0.1 1.8-0.4 2.3 0.5 2.5 0.9 0.3 0.8-0.1 2-1 2.5 -0.2 0.1-0.2 0.3-0.2 0.8 -0.1 0.9-0.1 2.2-1.9 3.2 -0.4 0.2-0.6 0.4-0.6 0.5 0 0.2 0.4 0.6 0.7 0.9 0.6 0.6 1.4 1.3 1.2 2.3 -0.5 2.1-4.7 3.2-5.9 3.3C7.5 48.1 7.3 48.1 7.2 48.1z"/><path d="M35 31.9c-0.8 0-1.6-0.1-2.4-0.4 -2.2-0.7-2.2-3.1-2.2-3.2l1 0c0 0.1 0 1.8 1.5 2.3 1.7 0.6 3.7 0.3 4.2-0.2l0.8 0.7C37.3 31.6 36.2 31.9 35 31.9z"/><path d="M48 48.8c-0.6 0-1.7-0.3-2.8-1.8 -0.5-0.7-0.9-1.5-1.1-2.1 -0.2-0.4-0.4-1-0.6-1 0 0-0.3 0-1.2 0.8 -2.8 2.8-7.3-1.4-7.5-1.6l-0.1-0.1 -0.4-0.8c-0.4-0.7 0.4-1.3 1.1-1.7 0.8-0.5 1.9-1.2 2.3-2.3 1-2.6 6-2 6.6-1.9l-0.1 1c-1.3-0.2-4.9-0.3-5.5 1.3 -0.6 1.4-1.8 2.2-2.7 2.8 -0.3 0.2-0.6 0.4-0.8 0.5l0.3 0.6c0.5 0.5 4 3.5 6 1.5 0.9-0.9 1.5-1.2 2.1-1.1 0.7 0.1 1 0.8 1.3 1.7 0.2 0.6 0.5 1.3 1 1.9 1.1 1.5 1.9 1.5 2.1 1.4 0.3 0 0.5-0.2 0.5-0.4l0.9 0.4c-0.2 0.6-0.7 0.9-1.3 1C48.2 48.8 48.1 48.8 48 48.8z"/><path d="M26.3 40.7c-2.2 0-3.9-1.3-3.9-2.9h1c0 1 1.3 1.9 2.9 1.9s2.9-0.9 2.9-1.9c0-1-1.3-1.9-2.9-1.9v-1c2.2 0 3.9 1.3 3.9 2.9C30.2 39.4 28.5 40.7 26.3 40.7z"/></svg>