<svg xmlns="http://www.w3.org/2000/svg" width="54" height="53" viewBox="0 0 53.7 52.6"><path d="M27.1 51.1c-7.2 0-18.6-2.1-26.3-10.5l-0.7-0.7 1-0.1c0 0 3.1-0.3 5-2.9 1.6-2.1 2-5.1 1.2-8.9 -1.1-5.7 0.2-11.5 3.8-16.3 3.9-5.4 9.9-8.9 16.5-9.7 5.2-0.6 10.3 0.4 14.8 3.1L42 5.9c-4.3-2.6-9.2-3.6-14.2-3 -6.3 0.8-12.1 4.2-15.9 9.3 -3.4 4.6-4.6 10.2-3.6 15.5 0.8 4.1 0.3 7.3-1.4 9.7 -1.5 2-3.6 2.8-4.7 3.1 8.9 9 22.3 10.1 28.3 9.3 6.9-0.9 13-4.3 17.2-9.8 3.9-5.1 5.7-11.6 5-17.7 -0.5-3.8-1.9-7.5-4.2-10.5l0.8-0.6c2.4 3.2 3.9 7 4.4 11 0.8 6.3-1.1 13-5.2 18.4 -4.3 5.7-10.7 9.3-17.9 10.2C29.7 51 28.5 51.1 27.1 51.1z"/><path d="M21 44.9l-0.3-9L11.8 36.2l-0.1-2.3 9.4-2.1 8.4-9 -12.3-1.4 -0.1-3.6 18.8-1.9c2.2-2.9 8.9-11.3 10.8-11.3 2.1 0 3.6 1.4 3.6 3.3 0 1.7-7.9 9-10.6 11.5l-0.6 19.4 -3.6 0.1 -2.2-12.6 -8.4 9 -1.5 9.5L21 44.9zM21.2 34.9l0.5 0.5 0.3 8.5 0.4 0 1.4-9 10-10.6 2.4 13.8 1.8-0.1 0.6-18.9 0.2-0.1c5-4.6 10.3-9.9 10.4-10.9 0-1.4-1-2.3-2.6-2.3 -1 0-6.1 5.8-10.1 11l-0.1 0.2 -18.3 1.8 0.1 1.8 13.4 1.5 -10 10.6 -8.9 2 0 0.4L21.2 34.9z"/></svg>